<svg width="256" height="256" viewBox="0 0 256 256" fill="none" xmlns="http://www.w3.org/2000/svg">
<g clip-path="url(#clip0_33_2)">
<path d="M3.19456 70.0773C6.43464 34.4473 34.4473 6.43464 70.0773 3.19456C89.5636 1.42254 110.619 0 128 0C145.381 0 166.436 1.42254 185.923 3.19456C221.553 6.43464 249.565 34.4473 252.805 70.0773C254.577 89.5636 256 110.619 256 128C256 145.381 254.577 166.436 252.805 185.923C249.565 221.553 221.553 249.565 185.923 252.805C166.436 254.577 145.381 256 128 256C110.619 256 89.5636 254.577 70.0773 252.805C34.4473 249.565 6.43464 221.553 3.19456 185.923C1.42254 166.436 0 145.381 0 128C0 110.619 1.42254 89.5636 3.19456 70.0773Z" fill="url(#paint0_linear_33_2)"/>
<g filter="url(#filter0_i_33_2)">
<path d="M110.073 206C100.451 206 91.8764 204.327 84.3491 200.98C76.8218 197.568 70.8655 192.549 66.48 185.922C62.16 179.229 60 170.896 60 160.922C60 152.524 61.5382 145.47 64.6145 139.762C67.6909 134.053 71.88 129.46 77.1818 125.982C82.4836 122.505 88.5055 119.88 95.2473 118.109C102.055 116.337 109.189 115.09 116.651 114.368C125.422 113.45 132.491 112.597 137.858 111.809C143.225 110.956 147.12 109.71 149.542 108.069C151.964 106.429 153.175 104.001 153.175 100.786V100.196C153.175 93.9621 151.211 89.1394 147.284 85.7274C143.422 82.3155 137.924 80.6094 130.789 80.6094C123.262 80.6094 117.273 82.2826 112.822 85.629C108.371 88.9098 105.425 93.0435 103.985 98.0303L65.3018 94.8808C67.2655 85.6946 71.1273 77.7552 76.8873 71.0625C82.6473 64.3041 90.0764 59.1205 99.1745 55.5117C108.338 51.8372 118.942 50 130.985 50C139.364 50 147.382 50.9842 155.04 52.9527C162.764 54.9211 169.604 57.9722 175.56 62.106C181.582 66.2397 186.327 71.5546 189.796 78.0505C193.265 84.4808 195 92.1905 195 101.18V203.146H155.335V182.182H154.156C151.735 186.906 148.495 191.073 144.436 194.681C140.378 198.225 135.502 201.013 129.807 203.047C124.113 205.016 117.535 206 110.073 206ZM122.051 177.064C128.204 177.064 133.636 175.85 138.349 173.422C143.062 170.929 146.76 167.582 149.444 163.383C152.127 159.184 153.469 154.426 153.469 149.112V133.069C152.16 133.922 150.36 134.709 148.069 135.431C145.844 136.087 143.324 136.71 140.509 137.301C137.695 137.826 134.88 138.318 132.065 138.777C129.251 139.171 126.698 139.532 124.407 139.86C119.498 140.582 115.211 141.73 111.545 143.305C107.88 144.879 105.033 147.012 103.004 149.702C100.975 152.327 99.96 155.608 99.96 159.544C99.96 165.253 102.022 169.616 106.145 172.635C110.335 175.587 115.636 177.064 122.051 177.064Z" fill="white"/>
</g>
</g>
<defs>
<filter id="filter0_i_33_2" x="60" y="50" width="137" height="158" filterUnits="userSpaceOnUse" color-interpolation-filters="sRGB">
<feFlood flood-opacity="0" result="BackgroundImageFix"/>
<feBlend mode="normal" in="SourceGraphic" in2="BackgroundImageFix" result="shape"/>
<feColorMatrix in="SourceAlpha" type="matrix" values="0 0 0 0 0 0 0 0 0 0 0 0 0 0 0 0 0 0 127 0" result="hardAlpha"/>
<feOffset dx="2" dy="2"/>
<feGaussianBlur stdDeviation="1"/>
<feComposite in2="hardAlpha" operator="arithmetic" k2="-1" k3="1"/>
<feColorMatrix type="matrix" values="0 0 0 0 0 0 0 0 0 0 0 0 0 0 0 0 0 0 0.25 0"/>
<feBlend mode="normal" in2="shape" result="effect1_innerShadow_33_2"/>
</filter>
<linearGradient id="paint0_linear_33_2" x1="0" y1="0" x2="256" y2="256" gradientUnits="userSpaceOnUse">
<stop stop-color="#3B82F6"/>
<stop offset="1" stop-color="#8B5CF6"/>
</linearGradient>
<clipPath id="clip0_33_2">
<rect width="256" height="256" fill="white"/>
</clipPath>
</defs>
</svg>
